<?xml version="1.0" standalone="no"?><!DOCTYPE svg PUBLIC "-//W3C//DTD SVG 1.1//EN" "http://www.w3.org/Graphics/SVG/1.1/DTD/svg11.dtd"><svg xmlns="http://www.w3.org/2000/svg" viewBox="0 0 650 400" version="1.1"><clipPath id="box"><rect x="0" y="0" width="650" height="400" style="fill:none;stroke:none;" /></clipPath><g clip-path="url(#box)"><rect x="0.00" y="0.00" width="650.00" height="400.00" style="fill:#FFFFFF;stroke:none;" /><path d="M0.00 400.00 L650.00 400.00 M0.00 320.00 L650.00 320.00 M0.00 240.00 L650.00 240.00 M0.00 160.00 L650.00 160.00 M0.00 79.00 L650.00 79.00 M0.00 0.00 L650.00 0.00 M0.00 0.00 L0.00 400.00 M65.00 0.00 L65.00 400.00 M130.00 0.00 L130.00 400.00 M195.00 0.00 L195.00 400.00 M260.00 0.00 L260.00 400.00 M325.00 0.00 L325.00 400.00 M390.00 0.00 L390.00 400.00 M454.00 0.00 L454.00 400.00 M520.00 0.00 L520.00 400.00 M584.00 0.00 L584.00 400.00 M649.00 0.00 L649.00 400.00 " style="fill:none;stroke:#D0D0D0;stroke-width:1;" /><path d="M0.00 0.00 L0.00 400.00 " style="fill:none;stroke:#000000;stroke-width:1;" /><path d="M-6.50 400.00 L6.50 400.00 M-6.50 320.00 L6.50 320.00 M-6.50 240.00 L6.50 240.00 M-6.50 160.00 L6.50 160.00 M-6.50 80.00 L6.50 80.00 M-6.50 0.00 L6.50 0.00 " style="fill:none;stroke:#000000;stroke-width:1;" /><path d="M0.00 400.00 L650.00 400.00 " style="fill:none;stroke:#000000;stroke-width:1;" /><path d="M0.00 393.50 L0.00 406.50 M65.00 393.50 L65.00 406.50 M130.00 393.50 L130.00 406.50 M195.00 393.50 L195.00 406.50 M260.00 393.50 L260.00 406.50 M325.00 393.50 L325.00 406.50 M390.00 393.50 L390.00 406.50 M455.00 393.50 L455.00 406.50 M520.00 393.50 L520.00 406.50 M585.00 393.50 L585.00 406.50 M650.00 393.50 L650.00 406.50 " style="fill:none;stroke:#000000;stroke-width:1;" /><text x="8.125" y="322.5" text-anchor="start" style="font:10px Droid Sans,Trebuchet MS,Arial,Helvetica,sans-serif;stroke:none;fill:#000000">2</text><text x="8.125" y="242.5" text-anchor="start" style="font:10px Droid Sans,Trebuchet MS,Arial,Helvetica,sans-serif;stroke:none;fill:#000000">4</text><text x="8.125" y="162.5" text-anchor="start" style="font:10px Droid Sans,Trebuchet MS,Arial,Helvetica,sans-serif;stroke:none;fill:#000000">6</text><text x="8.125" y="82.5" text-anchor="start" style="font:10px Droid Sans,Trebuchet MS,Arial,Helvetica,sans-serif;stroke:none;fill:#000000">8</text><text x="65" y="389.625" text-anchor="middle" style="font:10px Droid Sans,Trebuchet MS,Arial,Helvetica,sans-serif;stroke:none;fill:#000000">0.2</text><text x="130" y="389.625" text-anchor="middle" style="font:10px Droid Sans,Trebuchet MS,Arial,Helvetica,sans-serif;stroke:none;fill:#000000">0.4</text><text x="195.00000000000003" y="389.625" text-anchor="middle" style="font:10px Droid Sans,Trebuchet MS,Arial,Helvetica,sans-serif;stroke:none;fill:#000000">0.6</text><text x="260" y="389.625" text-anchor="middle" style="font:10px Droid Sans,Trebuchet MS,Arial,Helvetica,sans-serif;stroke:none;fill:#000000">0.8</text><text x="325" y="389.625" text-anchor="middle" style="font:10px Droid Sans,Trebuchet MS,Arial,Helvetica,sans-serif;stroke:none;fill:#000000">1</text><text x="390" y="389.625" text-anchor="middle" style="font:10px Droid Sans,Trebuchet MS,Arial,Helvetica,sans-serif;stroke:none;fill:#000000">1.2</text><text x="454.99999999999994" y="389.625" text-anchor="middle" style="font:10px Droid Sans,Trebuchet MS,Arial,Helvetica,sans-serif;stroke:none;fill:#000000">1.4</text><text x="520" y="389.625" text-anchor="middle" style="font:10px Droid Sans,Trebuchet MS,Arial,Helvetica,sans-serif;stroke:none;fill:#000000">1.6</text><text x="584.9999999999999" y="389.625" text-anchor="middle" style="font:10px Droid Sans,Trebuchet MS,Arial,Helvetica,sans-serif;stroke:none;fill:#000000">1.8</text><path d="M-10.00 200.00 L-0.25 199.89 L0.75 199.05 L1.94 198.07 L3.15 197.13 L4.44 196.22 L5.86 195.38 L7.54 194.64 L9.54 194.19 L11.54 194.25 L13.54 194.80 L15.54 195.79 L17.54 197.12 L19.04 198.27 L20.35 199.31 L21.60 200.31 L22.85 201.28 L24.15 202.19 L25.56 203.06 L27.20 203.82 L29.20 204.34 L31.20 204.36 L33.20 203.85 L35.20 202.87 L37.20 201.48 L38.64 200.29 L39.85 199.21 L40.98 198.18 L42.06 197.17 L43.14 196.19 L44.23 195.23 L45.38 194.29 L46.60 193.39 L47.96 192.54 L49.54 191.76 L51.54 191.13 L53.54 190.87 L55.54 190.92 L57.54 191.14 L59.54 191.34 L61.54 191.25 L63.54 190.59 L65.54 188.94 L66.76 187.27 L67.49 185.96 L68.04 184.78 L68.51 183.64 L68.92 182.53 L69.29 181.43 L69.63 180.35 L69.95 179.28 L70.24 178.21 L70.51 177.15 L70.77 176.09 L71.02 175.04 L71.25 173.99 L71.47 172.94 L71.68 171.90 L71.88 170.86 L72.08 169.82 L72.26 168.78 L72.44 167.75 L72.62 166.72 L72.79 165.69 L72.95 164.66 L73.11 163.63 L73.27 162.60 L73.42 161.58 L73.56 160.55 L73.71 159.53 L73.85 158.50 L73.98 157.48 L74.12 156.46 L74.25 155.44 L74.38 154.42 L74.50 153.41 L74.63 152.39 L74.75 151.37 L74.87 150.36 L74.99 149.34 L75.11 148.33 L75.22 147.31 L75.34 146.30 L75.45 145.29 L75.56 144.28 L75.67 143.27 L75.78 142.26 L75.88 141.25 L75.99 140.24 L76.10 139.23 L76.20 138.23 L76.31 137.22 L76.41 136.22 L76.51 135.21 L76.62 134.21 L76.72 133.21 L76.82 132.20 L76.92 131.20 L77.02 130.20 L77.12 129.20 L77.23 128.21 L77.33 127.21 L77.43 126.21 L77.53 125.22 L77.64 124.22 L77.74 123.23 L77.84 122.24 L77.95 121.25 L78.06 120.27 L78.17 119.28 L78.28 118.30 L78.39 117.32 L78.50 116.34 L78.62 115.37 L78.74 114.40 L78.86 113.43 L78.99 112.47 L79.12 111.52 L79.26 110.57 L79.41 109.64 L79.57 108.72 L79.74 107.82 L79.93 106.95 L80.15 106.13 L80.42 105.40 L80.79 104.94 L81.58 106.18 L82.23 109.43 L82.43 110.82 L82.57 111.92 L82.70 113.00 L82.82 114.06 L82.93 115.11 L83.04 116.16 L83.14 117.20 L83.24 118.23 L83.33 119.26 L83.43 120.29 L83.52 121.32 L83.60 122.34 L83.69 123.36 L83.77 124.38 L83.86 125.40 L83.94 126.42 L84.02 127.44 L84.09 128.45 L84.17 129.46 L84.25 130.48 L84.32 131.49 L84.40 132.50 L84.47 133.51 L84.54 134.52 L84.61 135.53 L84.69 136.54 L84.76 137.55 L84.83 138.55 L84.90 139.56 L84.96 140.57 L85.03 141.57 L85.10 142.58 L85.17 143.58 L85.24 144.59 L85.30 145.59 L85.37 146.60 L85.44 147.60 L85.50 148.61 L85.57 149.61 L85.63 150.61 L85.70 151.62 L85.76 152.62 L85.83 153.62 L85.89 154.63 L85.96 155.63 L86.02 156.63 L86.09 157.63 L86.15 158.63 L86.22 159.64 L86.28 160.64 L86.34 161.64 L86.41 162.64 L86.47 163.64 L86.53 164.64 L86.60 165.65 L86.66 166.65 L86.72 167.65 L86.79 168.65 L86.85 169.65 L86.91 170.65 L86.98 171.65 L87.04 172.65 L87.10 173.66 L87.17 174.66 L87.23 175.66 L87.29 176.66 L87.35 177.66 L87.42 178.66 L87.48 179.66 L87.54 180.66 L87.60 181.66 L87.67 182.66 L87.73 183.66 L87.79 184.66 L87.85 185.67 L87.91 186.67 L87.98 187.67 L88.04 188.67 L88.10 189.67 L88.16 190.67 L88.22 191.67 L88.29 192.67 L88.35 193.67 L88.41 194.67 L88.47 195.67 L88.53 196.68 L88.59 197.68 L88.66 198.68 L88.72 199.68 L88.78 200.68 L88.84 201.68 L88.90 202.68 L88.96 203.68 L89.02 204.69 L89.08 205.69 L89.14 206.69 L89.20 207.69 L89.26 208.69 L89.33 209.69 L89.39 210.70 L89.45 211.70 L89.51 212.70 L89.57 213.70 L89.63 214.70 L89.69 215.70 L89.75 216.71 L89.81 217.71 L89.86 218.71 L89.92 219.71 L89.98 220.71 L90.04 221.72 L90.10 222.72 L90.16 223.72 L90.22 224.72 L90.28 225.72 L90.34 226.73 L90.39 227.73 L90.45 228.73 L90.51 229.73 L90.57 230.74 L90.63 231.74 L90.68 232.74 L90.74 233.74 L90.80 234.74 L90.86 235.75 L90.91 236.75 L90.97 237.75 L91.03 238.75 L91.09 239.76 L91.14 240.76 L91.20 241.76 L91.26 242.76 L91.31 243.76 L91.37 244.77 L91.42 245.77 L91.48 246.77 L91.54 247.77 L91.59 248.77 L91.65 249.77 L91.70 250.78 L91.76 251.78 L91.82 252.78 L91.87 253.78 L91.93 254.78 L91.98 255.78 L92.04 256.79 L92.09 257.79 L92.15 258.79 L92.20 259.79 L92.26 260.79 L92.31 261.79 L92.37 262.79 L92.42 263.79 L92.48 264.79 L92.53 265.79 L92.58 266.80 L92.64 267.80 L92.69 268.80 L92.75 269.80 L92.80 270.80 L92.86 271.80 L92.91 272.80 L92.97 273.80 L93.02 274.79 L93.08 275.79 L93.13 276.79 L93.18 277.79 L93.24 278.79 L93.29 279.79 L93.35 280.79 L93.40 281.79 L93.46 282.78 L93.51 283.78 L93.57 284.78 L93.62 285.78 L93.68 286.77 L93.74 287.77 L93.79 288.77 L93.85 289.77 L93.90 290.76 L93.96 291.76 L94.02 292.75 L94.07 293.75 L94.13 294.74 L94.19 295.74 L94.25 296.73 L94.30 297.73 L94.36 298.72 L94.42 299.71 L94.48 300.70 L94.54 301.70 L94.60 302.69 L94.66 303.68 L94.72 304.67 L94.79 305.66 L94.85 306.65 L94.91 307.64 L94.97 308.63 L95.04 309.61 L95.11 310.60 L95.17 311.58 L95.24 312.57 L95.31 313.55 L95.38 314.53 L95.45 315.51 L95.52 316.49 L95.59 317.47 L95.67 318.45 L95.75 319.42 L95.83 320.39 L95.91 321.36 L95.99 322.33 L96.08 323.29 L96.17 324.25 L96.27 325.20 L96.37 326.15 L96.47 327.09 L96.58 328.02 L96.70 328.94 L96.83 329.85 L96.97 330.73 L97.14 331.58 L97.33 332.37 L97.57 333.03 L97.94 333.33 L99.15 328.74 L99.41 326.75 L99.55 325.64 L99.67 324.58 L99.78 323.53 L99.89 322.49 L99.99 321.46 L100.09 320.43 L100.19 319.40 L100.28 318.38 L100.37 317.36 L100.46 316.34 L100.55 315.32 L100.64 314.31 L100.73 313.29 L100.81 312.28 L100.89 311.27 L100.98 310.26 L101.06 309.25 L101.14 308.25 L101.22 307.24 L101.30 306.24 L101.38 305.23 L101.46 304.23 L101.54 303.22 L101.62 302.22 L101.70 301.22 L101.78 300.22 L101.86 299.22 L101.94 298.22 L102.02 297.22 L102.09 296.22 L102.17 295.22 L102.25 294.22 L102.33 293.23 L102.41 292.23 L102.49 291.23 L102.57 290.24 L102.65 289.24 L102.73 288.25 L102.81 287.25 L102.89 286.26 L102.98 285.26 L103.06 284.27 L103.14 283.28 L103.23 282.28 L103.31 281.29 L103.39 280.30 L103.48 279.31 L103.57 278.32 L103.65 277.32 L103.74 276.33 L103.83 275.34 L103.92 274.35 L104.01 273.36 L104.10 272.37 L104.19 271.38 L104.28 270.40 L104.38 269.41 L104.47 268.42 L104.57 267.43 L104.67 266.44 L104.77 265.46 L104.87 264.47 L104.97 263.48 L105.07 262.50 L105.17 261.51 L105.28 260.53 L105.39 259.54 L105.50 258.56 L105.61 257.57 L105.72 256.59 L105.83 255.60 L105.95 254.62 L106.07 253.64 L106.19 252.65 L106.31 251.67 L106.43 250.69 L106.56 249.71 L106.69 248.73 L106.82 247.74 L106.95 246.76 L107.09 245.78 L107.23 244.80 L107.37 243.82 L107.51 242.84 L107.66 241.86 L107.81 240.88 L107.96 239.90 L108.12 238.92 L108.28 237.95 L108.45 236.97 L108.61 235.99 L108.78 235.01 L108.96 234.03 L109.14 233.05 L109.32 232.07 L109.51 231.09 L109.70 230.12 L109.89 229.14 L110.09 228.16 L110.29 227.18 L110.50 226.20 L110.71 225.22 L110.93 224.23 L111.15 223.25 L111.37 222.27 L111.60 221.29 L111.83 220.30 L112.06 219.31 L112.30 218.33 L112.54 217.34 L112.78 216.35 L113.03 215.36 L113.28 214.37 L113.53 213.37 L113.78 212.38 L114.03 211.38 L114.29 210.38 L114.54 209.38 L114.80 208.38 L115.05 207.38 L115.31 206.37 L115.56 205.37 L115.81 204.36 L116.06 203.35 L116.30 202.34 L116.55 201.33 L116.79 200.32 L117.03 199.31 L117.27 198.30 L117.50 197.28 L117.73 196.27 L117.96 195.25 L118.18 194.24 L118.40 193.22 L118.62 192.20 L118.83 191.19 L119.04 190.17 L119.25 189.15 L119.45 188.13 L119.65 187.11 L119.84 186.10 L120.04 185.08 L120.22 184.06 L120.41 183.04 L120.59 182.02 L120.77 181.01 L120.95 179.99 L121.12 178.97 L121.29 177.95 L121.45 176.94 L121.62 175.92 L121.78 174.90 L121.94 173.89 L122.09 172.87 L122.25 171.86 L122.40 170.84 L122.55 169.83 L122.69 168.81 L122.84 167.80 L122.98 166.78 L123.12 165.77 L123.26 164.76 L123.40 163.75 L123.53 162.73 L123.67 161.72 L123.80 160.71 L123.93 159.70 L124.06 158.69 L124.19 157.68 L124.32 156.67 L124.44 155.67 L124.57 154.66 L124.69 153.65 L124.81 152.65 L124.94 151.64 L125.06 150.64 L125.18 149.63 L125.30 148.63 L125.42 147.63 L125.54 146.63 L125.66 145.62 L125.78 144.63 L125.90 143.63 L126.02 142.63 L126.14 141.63 L126.26 140.64 L126.39 139.64 L126.51 138.65 L126.63 137.66 L126.76 136.67 L126.88 135.69 L127.01 134.70 L127.14 133.72 L127.27 132.74 L127.40 131.76 L127.54 130.79 L127.68 129.82 L127.83 128.86 L127.98 127.90 L128.14 126.95 L128.31 126.00 L128.48 125.07 L128.67 124.16 L128.88 123.26 L129.11 122.41 L129.38 121.60 L129.72 120.91 L130.20 120.54 L131.51 123.12 L132.02 125.34 L132.25 126.51 L132.44 127.59 L132.62 128.64 L132.80 129.68 L132.96 130.72 L133.12 131.75 L133.27 132.77 L133.43 133.79 L133.57 134.80 L133.72 135.82 L133.87 136.83 L134.01 137.83 L134.15 138.84 L134.29 139.84 L134.43 140.84 L134.57 141.84 L134.71 142.84 L134.86 143.84 L135.00 144.83 L135.14 145.83 L135.28 146.82 L135.43 147.81 L135.57 148.81 L135.72 149.80 L135.86 150.79 L136.01 151.77 L136.16 152.76 L136.32 153.75 L136.47 154.73 L136.63 155.72 L136.79 156.70 L136.95 157.69 L137.12 158.67 L137.28 159.65 L137.46 160.63 L137.63 161.61 L137.81 162.59 L137.99 163.57 L138.18 164.55 L138.36 165.52 L138.56 166.50 L138.76 167.48 L138.96 168.45 L139.17 169.42 L139.39 170.40 L139.61 171.37 L139.83 172.34 L140.07 173.31 L140.31 174.28 L140.56 175.25 L140.81 176.22 L141.07 177.19 L141.35 178.16 L141.63 179.12 L141.92 180.09 L142.22 181.05 L142.54 182.01 L142.87 182.97 L143.21 183.93 L143.56 184.89 L143.93 185.85 L144.31 186.80 L144.72 187.76 L145.14 188.71 L145.59 189.65 L146.06 190.60 L146.56 191.54 L147.09 192.47 L147.66 193.40 L148.27 194.32 L148.94 195.22 L149.68 196.12 L150.50 196.99 L151.45 197.82 L152.59 198.60 L154.04 199.28 L156.04 199.66 L158.04 199.51 L160.04 198.93 L162.04 198.07 L164.04 197.06 L166.02 196.06 L168.01 195.19 L170.01 194.56 L172.01 194.26 L174.01 194.34 L176.01 194.79 L178.01 195.60 L180.01 196.68 L181.85 197.85 L183.43 198.91 L184.91 199.91 L186.40 200.86 L187.97 201.75 L189.74 202.56 L191.74 203.18 L193.74 203.43 L195.74 203.30 L197.74 202.82 L199.74 202.04 L201.74 201.04 L203.74 199.93 L205.54 198.92 L207.33 198.00 L209.26 197.16 L211.26 196.56 L213.26 196.26 L215.26 196.31 L217.26 196.67 L219.26 197.33 L221.26 198.20 L223.26 199.21 L225.24 200.25 L227.15 201.20 L229.15 202.05 L231.15 202.69 L233.15 203.06 L235.15 203.14 L237.15 202.92 L239.15 202.46 L241.15 201.79 L243.15 200.99 L245.15 200.14 L247.15 199.34 L249.15 198.65 L251.15 198.14 L253.15 197.86 L255.15 197.82 L257.15 198.03 L259.15 198.45 L261.15 199.05 L263.15 199.77 L265.15 200.53 L267.15 201.27 L269.15 201.93 L271.15 202.46 L273.15 202.83 L275.15 203.01 L277.15 203.03 L279.15 202.90 L281.15 202.67 L283.15 202.38 L285.15 202.09 L287.15 201.87 L289.15 201.75 L291.15 201.80 L293.15 202.03 L295.15 202.48 L297.15 203.15 L299.15 204.06 L301.15 205.21 L302.88 206.43 L304.31 207.60 L305.53 208.74 L306.60 209.86 L307.55 210.98 L308.40 212.09 L309.17 213.19 L309.87 214.29 L310.50 215.38 L311.08 216.47 L311.61 217.55 L312.11 218.63 L312.57 219.70 L312.99 220.77 L313.39 221.84 L313.76 222.90 L314.12 223.96 L314.45 225.02 L314.76 226.07 L315.06 227.12 L315.35 228.17 L315.62 229.21 L315.88 230.26 L316.13 231.30 L316.37 232.34 L316.60 233.37 L316.82 234.41 L317.03 235.44 L317.24 236.47 L317.44 237.50 L317.64 238.53 L317.83 239.56 L318.01 240.59 L318.19 241.61 L318.37 242.63 L318.54 243.66 L318.70 244.68 L318.87 245.70 L319.03 246.71 L319.19 247.73 L319.35 248.75 L319.50 249.76 L319.65 250.77 L319.80 251.78 L319.95 252.79 L320.09 253.80 L320.24 254.81 L320.38 255.82 L320.53 256.82 L320.67 257.83 L320.81 258.83 L320.95 259.83 L321.09 260.82 L321.24 261.82 L321.38 262.82 L321.52 263.81 L321.67 264.80 L321.81 265.78 L321.96 266.77 L322.11 267.75 L322.26 268.72 L322.42 269.70 L322.58 270.66 L322.75 271.62 L322.92 272.57 L323.11 273.51 L323.30 274.44 L323.51 275.35 L323.75 276.23 L324.01 277.06 L324.32 277.82 L324.74 278.38 L325.49 278.08 L327.49 269.97 L327.73 268.44 L327.89 267.40 L328.05 266.37 L328.20 265.35 L328.35 264.34 L328.49 263.32 L328.64 262.31 L328.78 261.31 L328.92 260.30 L329.06 259.30 L329.20 258.30 L329.34 257.30 L329.48 256.30 L329.62 255.30 L329.76 254.31 L329.90 253.31 L330.04 252.32 L330.19 251.33 L330.33 250.34 L330.48 249.35 L330.62 248.36 L330.77 247.37 L330.92 246.39 L331.08 245.40 L331.23 244.42 L331.39 243.44 L331.55 242.46 L331.72 241.47 L331.88 240.50 L332.05 239.52 L332.23 238.54 L332.41 237.56 L332.59 236.59 L332.78 235.62 L332.97 234.64 L333.17 233.67 L333.37 232.70 L333.59 231.73 L333.80 230.76 L334.03 229.80 L334.26 228.83 L334.50 227.87 L334.75 226.91 L335.01 225.95 L335.28 224.99 L335.56 224.03 L335.86 223.08 L336.17 222.12 L336.49 221.17 L336.83 220.22 L337.19 219.27 L337.57 218.33 L337.97 217.38 L338.39 216.44 L338.84 215.50 L339.31 214.56 L339.82 213.62 L340.37 212.69 L340.95 211.75 L341.57 210.82 L342.23 209.89 L342.94 208.95 L343.70 208.02 L344.52 207.08 L345.38 206.14 L346.31 205.19 L347.28 204.25 L348.32 203.30 L349.40 202.34 L350.54 201.39 L351.73 200.43 L352.98 199.48 L354.29 198.53 L355.67 197.59 L357.14 196.65 L358.70 195.72 L360.38 194.79 L362.18 193.85 L364.10 192.86 L366.04 191.80 L367.86 190.63 L369.42 189.39 L370.68 188.16 L371.71 186.95 L372.55 185.78 L373.28 184.63 L373.91 183.50 L374.46 182.39 L374.97 181.29 L375.42 180.20 L375.84 179.12 L376.23 178.05 L376.59 176.98 L376.93 175.91 L377.24 174.85 L377.54 173.80 L377.83 172.74 L378.09 171.69 L378.35 170.65 L378.59 169.60 L378.83 168.56 L379.05 167.52 L379.27 166.48 L379.48 165.44 L379.68 164.41 L379.87 163.37 L380.06 162.34 L380.24 161.31 L380.41 160.28 L380.58 159.25 L380.75 158.22 L380.91 157.19 L381.06 156.16 L381.22 155.14 L381.36 154.11 L381.51 153.09 L381.65 152.07 L381.79 151.05 L381.92 150.02 L382.06 149.00 L382.19 147.98 L382.31 146.96 L382.44 145.95 L382.56 144.93 L382.68 143.91 L382.80 142.89 L382.92 141.88 L383.03 140.86 L383.14 139.84 L383.25 138.83 L383.36 137.82 L383.47 136.80 L383.58 135.79 L383.68 134.78 L383.79 133.76 L383.89 132.75 L383.99 131.74 L384.09 130.73 L384.19 129.72 L384.29 128.71 L384.39 127.70 L384.48 126.69 L384.58 125.68 L384.67 124.68 L384.77 123.67 L384.86 122.66 L384.95 121.66 L385.04 120.65 L385.14 119.65 L385.23 118.64 L385.32 117.64 L385.41 116.63 L385.50 115.63 L385.59 114.63 L385.68 113.63 L385.77 112.62 L385.85 111.62 L385.94 110.62 L386.03 109.62 L386.12 108.63 L386.21 107.63 L386.30 106.63 L386.39 105.64 L386.48 104.64 L386.57 103.65 L386.66 102.65 L386.75 101.66 L386.85 100.67 L386.94 99.68 L387.03 98.69 L387.13 97.70 L387.22 96.72 L387.32 95.73 L387.42 94.75 L387.52 93.77 L387.63 92.79 L387.73 91.82 L387.84 90.84 L387.95 89.88 L388.07 88.91 L388.19 87.95 L388.31 87.00 L388.44 86.05 L388.58 85.11 L388.72 84.19 L388.88 83.28 L389.06 82.39 L389.25 81.54 L389.49 80.76 L389.78 80.10 L390.23 79.85 L392.01 87.27 L392.25 89.12 L392.38 90.18 L392.50 91.21 L392.62 92.24 L392.74 93.27 L392.85 94.29 L392.96 95.31 L393.07 96.33 L393.17 97.35 L393.28 98.36 L393.38 99.37 L393.48 100.38 L393.58 101.39 L393.68 102.40 L393.78 103.40 L393.88 104.41 L393.98 105.41 L394.07 106.41 L394.17 107.41 L394.27 108.42 L394.36 109.42 L394.46 110.41 L394.56 111.41 L394.66 112.41 L394.75 113.41 L394.85 114.40 L394.95 115.40 L395.05 116.40 L395.15 117.39 L395.25 118.38 L395.35 119.38 L395.45 120.37 L395.55 121.36 L395.65 122.35 L395.75 123.35 L395.86 124.34 L395.96 125.33 L396.07 126.32 L396.18 127.31 L396.28 128.30 L396.39 129.28 L396.51 130.27 L396.62 131.26 L396.73 132.25 L396.85 133.23 L396.96 134.22 L397.08 135.20 L397.20 136.19 L397.32 137.17 L397.45 138.16 L397.57 139.14 L397.70 140.12 L397.83 141.11 L397.96 142.09 L398.10 143.07 L398.23 144.05 L398.37 145.03 L398.52 146.01 L398.66 146.99 L398.81 147.97 L398.96 148.95 L399.12 149.93 L399.27 150.91 L399.44 151.89 L399.60 152.86 L399.77 153.84 L399.94 154.82 L400.12 155.79 L400.30 156.77 L400.49 157.74 L400.68 158.72 L400.88 159.69 L401.08 160.66 L401.29 161.64 L401.50 162.61 L401.72 163.58 L401.94 164.55 L402.17 165.53 L402.41 166.50 L402.66 167.47 L402.91 168.44 L403.17 169.41 L403.44 170.38 L403.72 171.35 L404.00 172.32 L404.30 173.29 L404.60 174.26 L404.91 175.23 L405.23 176.20 L405.57 177.17 L405.91 178.14 L406.26 179.11 L406.63 180.07 L407.01 181.04 L407.39 182.01 L407.80 182.98 L408.21 183.95 L408.64 184.91 L409.08 185.88 L409.54 186.84 L410.02 187.81 L410.51 188.77 L411.03 189.73 L411.56 190.68 L412.13 191.63 L412.72 192.58 L413.34 193.52 L414.00 194.45 L414.72 195.37 L415.50 196.27 L416.36 197.15 L417.34 197.99 L418.50 198.77 L419.99 199.42 L421.99 199.67 L423.99 199.28 L425.99 198.33 L427.99 196.96 L429.45 195.80 L430.71 194.75 L431.92 193.76 L433.14 192.82 L434.43 191.93 L435.89 191.13 L437.71 190.52 L439.71 190.44 L441.71 191.03 L443.71 192.29 L445.29 193.72 L446.40 194.91 L447.33 196.01 L448.17 197.07 L448.97 198.11 L449.74 199.13 L450.49 200.13 L451.24 201.13 L452.00 202.11 L452.77 203.07 L453.57 204.02 L454.41 204.95 L455.32 205.85 L456.33 206.70 L457.52 207.47 L459.06 208.05 L461.06 208.05 L463.06 207.16 L465.06 205.44 L466.22 204.11 L467.10 202.97 L467.87 201.90 L468.58 200.85 L469.27 199.81 L469.93 198.79 L470.57 197.78 L471.21 196.78 L471.85 195.79 L472.50 194.81 L473.16 193.85 L473.85 192.89 L474.56 191.96 L475.33 191.04 L476.16 190.16 L477.11 189.32 L478.24 188.59 L479.78 188.10 L481.78 188.40 L483.78 189.77 L485.24 191.39 L486.14 192.63 L486.87 193.74 L487.52 194.81 L488.13 195.87 L488.71 196.91 L489.26 197.94 L489.80 198.96 L490.33 199.97 L490.85 200.98 L491.37 201.98 L491.88 202.97 L492.41 203.96 L492.93 204.94 L493.47 205.91 L494.02 206.88 L494.60 207.83 L495.20 208.77 L495.84 209.69 L496.54 210.59 L497.31 211.46 L498.20 212.26 L499.31 212.94 L500.96 213.23 L502.96 212.40 L504.96 210.32 L505.92 208.92 L506.60 207.78 L507.20 206.69 L507.75 205.63 L508.27 204.58 L508.77 203.54 L509.24 202.51 L509.71 201.49 L510.16 200.47 L510.60 199.46 L511.04 198.45 L511.48 197.45 L511.92 196.45 L512.35 195.46 L512.79 194.47 L513.24 193.49 L513.69 192.51 L514.16 191.54 L514.63 190.58 L515.13 189.62 L515.65 188.67 L516.19 187.74 L516.78 186.83 L517.43 185.94 L518.15 185.09 L519.00 184.31 L520.10 183.70 L521.88 183.65 L523.88 185.06 L525.30 186.95 L526.05 188.23 L526.64 189.35 L527.17 190.43 L527.66 191.49 L528.11 192.54 L528.55 193.58 L528.97 194.62 L529.37 195.65 L529.77 196.67 L530.15 197.68 L530.53 198.70 L530.91 199.71 L531.28 200.71 L531.65 201.72 L532.01 202.72 L532.38 203.71 L532.75 204.71 L533.12 205.69 L533.50 206.68 L533.88 207.66 L534.27 208.64 L534.66 209.61 L535.07 210.58 L535.49 211.54 L535.93 212.50 L536.39 213.44 L536.87 214.38 L537.39 215.29 L537.96 216.19 L538.60 217.05 L539.34 217.85 L540.26 218.53 L541.61 218.85 L543.61 217.81 L545.54 215.15 L546.27 213.76 L546.79 212.65 L547.25 211.57 L547.69 210.51 L548.09 209.46 L548.48 208.41 L548.85 207.38 L549.22 206.35 L549.56 205.33 L549.91 204.30 L550.24 203.29 L550.57 202.27 L550.89 201.26 L551.21 200.25 L551.53 199.25 L551.85 198.24 L552.16 197.24 L552.48 196.24 L552.79 195.25 L553.11 194.25 L553.43 193.26 L553.75 192.27 L554.08 191.29 L554.40 190.31 L554.74 189.33 L555.08 188.35 L555.43 187.38 L555.79 186.41 L556.17 185.45 L556.55 184.49 L556.96 183.55 L557.39 182.61 L557.85 181.69 L558.34 180.78 L558.89 179.90 L559.51 179.07 L560.26 178.31 L561.25 177.75 L562.99 177.98 L564.99 180.21 L565.89 181.86 L566.43 183.04 L566.89 184.14 L567.31 185.21 L567.70 186.28 L568.07 187.33 L568.42 188.37 L568.75 189.41 L569.08 190.44 L569.39 191.46 L569.70 192.49 L569.99 193.51 L570.29 194.52 L570.58 195.54 L570.86 196.55 L571.14 197.56 L571.42 198.57 L571.69 199.58 L571.96 200.58 L572.24 201.58 L572.51 202.58 L572.78 203.58 L573.05 204.58 L573.32 205.58 L573.59 206.57 L573.87 207.56 L574.15 208.55 L574.43 209.54 L574.71 210.53 L575.00 211.51 L575.29 212.49 L575.59 213.47 L575.89 214.44 L576.21 215.41 L576.53 216.38 L576.86 217.34 L577.21 218.30 L577.57 219.24 L577.95 220.18 L578.36 221.11 L578.80 222.02 L579.28 222.91 L579.82 223.77 L580.45 224.57 L581.25 225.24 L582.42 225.56 L584.42 224.17 L585.85 221.70 L586.44 220.37 L586.87 219.25 L587.27 218.17 L587.63 217.11 L587.97 216.05 L588.29 215.01 L588.60 213.97 L588.90 212.93 L589.19 211.90 L589.47 210.88 L589.74 209.85 L590.01 208.83 L590.27 207.82 L590.52 206.80 L590.77 205.79 L591.02 204.77 L591.27 203.76 L591.51 202.75 L591.75 201.75 L591.99 200.74 L592.23 199.74 L592.46 198.73 L592.70 197.73 L592.94 196.73 L593.17 195.73 L593.41 194.73 L593.64 193.74 L593.88 192.74 L594.12 191.75 L594.36 190.76 L594.60 189.77 L594.84 188.78 L595.09 187.79 L595.34 186.81 L595.59 185.82 L595.85 184.84 L596.11 183.86 L596.38 182.88 L596.65 181.91 L596.94 180.94 L597.23 179.97 L597.53 179.01 L597.84 178.06 L598.17 177.11 L598.51 176.16 L598.88 175.23 L599.27 174.31 L599.69 173.42 L600.17 172.54 L600.72 171.72 L601.38 170.98 L602.27 170.45 L603.95 170.95 L605.95 174.10 L606.58 175.65 L606.99 176.78 L607.35 177.86 L607.69 178.93 L608.00 179.99 L608.30 181.03 L608.58 182.07 L608.86 183.11 L609.12 184.14 L609.38 185.17 L609.62 186.19 L609.87 187.22 L610.10 188.24 L610.34 189.26 L610.56 190.27 L610.79 191.29 L611.01 192.30 L611.23 193.31 L611.44 194.32 L611.66 195.33 L611.87 196.34 L612.08 197.34 L612.29 198.35 L612.50 199.35 L612.70 200.36 L612.91 201.36 L613.11 202.36 L613.32 203.36 L613.52 204.36 L613.73 205.36 L613.94 206.36 L614.14 207.35 L614.35 208.35 L614.56 209.34 L614.77 210.33 L614.98 211.33 L615.19 212.32 L615.40 213.31 L615.62 214.29 L615.84 215.28 L616.06 216.27 L616.29 217.25 L616.52 218.23 L616.75 219.21 L616.99 220.19 L617.24 221.16 L617.49 222.13 L617.75 223.10 L618.01 224.07 L618.29 225.03 L618.58 225.98 L618.88 226.93 L619.20 227.87 L619.54 228.80 L619.90 229.72 L620.30 230.62 L620.74 231.49 L621.24 232.31 L621.85 233.06 L622.68 233.60 L624.20 233.17 L626.20 229.81 L626.80 228.23 L627.18 227.10 L627.51 226.02 L627.82 224.95 L628.11 223.90 L628.38 222.85 L628.64 221.81 L628.89 220.77 L629.13 219.74 L629.37 218.71 L629.60 217.68 L629.82 216.66 L630.03 215.64 L630.25 214.62 L630.45 213.60 L630.66 212.58 L630.86 211.57 L631.06 210.56 L631.25 209.54 L631.45 208.53 L631.64 207.52 L631.83 206.51 L632.01 205.51 L632.20 204.50 L632.38 203.49 L632.57 202.49 L632.75 201.48 L632.93 200.48 L633.11 199.48 L633.29 198.47 L633.47 197.47 L633.65 196.47 L633.83 195.47 L634.01 194.47 L634.19 193.48 L634.38 192.48 L634.56 191.48 L634.74 190.49 L634.92 189.49 L635.10 188.50 L635.29 187.50 L635.47 186.51 L635.66 185.52 L635.85 184.53 L636.04 183.54 L636.24 182.55 L636.43 181.57 L636.63 180.58 L636.83 179.60 L637.03 178.62 L637.24 177.63 L637.45 176.66 L637.67 175.68 L637.89 174.70 L638.12 173.73 L638.35 172.76 L638.59 171.80 L638.84 170.83 L639.10 169.88 L639.37 168.92 L639.66 167.98 L639.96 167.04 L640.28 166.12 L640.63 165.20 L641.01 164.31 L641.43 163.46 L641.93 162.65 L642.55 161.95 L643.44 161.54 L645.44 163.25 L646.61 165.92 L647.05 167.22 L647.39 168.33 L647.70 169.40 L647.98 170.47 L648.24 171.52 L648.50 172.57 L648.74 173.61 L648.97 174.65 L649.19 175.68 L649.41 176.71 L649.62 177.74 L649.82 178.76 " style="fill:none;stroke:#000000;stroke-width:1;" /></g></svg>