<?xml version="1.0" standalone="no"?><!DOCTYPE svg PUBLIC "-//W3C//DTD SVG 1.1//EN" "http://www.w3.org/Graphics/SVG/1.1/DTD/svg11.dtd"><svg xmlns="http://www.w3.org/2000/svg" viewBox="0 0 650 400" version="1.1"><clipPath id="box"><rect x="0" y="0" width="650" height="400" style="fill:none;stroke:none;" /></clipPath><g clip-path="url(#box)"><rect x="0.00" y="0.00" width="650.00" height="400.00" style="fill:#FFFFFF;stroke:none;" /><path d="M0.00 400.00 L650.00 400.00 M0.00 320.00 L650.00 320.00 M0.00 240.00 L650.00 240.00 M0.00 160.00 L650.00 160.00 M0.00 79.00 L650.00 79.00 M0.00 0.00 L650.00 0.00 M0.00 0.00 L0.00 400.00 M65.00 0.00 L65.00 400.00 M130.00 0.00 L130.00 400.00 M195.00 0.00 L195.00 400.00 M260.00 0.00 L260.00 400.00 M325.00 0.00 L325.00 400.00 M390.00 0.00 L390.00 400.00 M454.00 0.00 L454.00 400.00 M520.00 0.00 L520.00 400.00 M584.00 0.00 L584.00 400.00 M649.00 0.00 L649.00 400.00 " style="fill:none;stroke:#D0D0D0;stroke-width:1;" /><path d="M0.00 0.00 L0.00 400.00 " style="fill:none;stroke:#000000;stroke-width:1;" /><path d="M-6.50 400.00 L6.50 400.00 M-6.50 320.00 L6.50 320.00 M-6.50 240.00 L6.50 240.00 M-6.50 160.00 L6.50 160.00 M-6.50 80.00 L6.50 80.00 M-6.50 0.00 L6.50 0.00 " style="fill:none;stroke:#000000;stroke-width:1;" /><path d="M0.00 400.00 L650.00 400.00 " style="fill:none;stroke:#000000;stroke-width:1;" /><path d="M0.00 393.50 L0.00 406.50 M65.00 393.50 L65.00 406.50 M130.00 393.50 L130.00 406.50 M195.00 393.50 L195.00 406.50 M260.00 393.50 L260.00 406.50 M325.00 393.50 L325.00 406.50 M390.00 393.50 L390.00 406.50 M455.00 393.50 L455.00 406.50 M520.00 393.50 L520.00 406.50 M585.00 393.50 L585.00 406.50 M650.00 393.50 L650.00 406.50 " style="fill:none;stroke:#000000;stroke-width:1;" /><text x="8.125" y="322.5" text-anchor="start" style="font:10px Droid Sans,Trebuchet MS,Arial,Helvetica,sans-serif;stroke:none;fill:#000000">2</text><text x="8.125" y="242.5" text-anchor="start" style="font:10px Droid Sans,Trebuchet MS,Arial,Helvetica,sans-serif;stroke:none;fill:#000000">4</text><text x="8.125" y="162.5" text-anchor="start" style="font:10px Droid Sans,Trebuchet MS,Arial,Helvetica,sans-serif;stroke:none;fill:#000000">6</text><text x="8.125" y="82.5" text-anchor="start" style="font:10px Droid Sans,Trebuchet MS,Arial,Helvetica,sans-serif;stroke:none;fill:#000000">8</text><text x="65" y="389.625" text-anchor="middle" style="font:10px Droid Sans,Trebuchet MS,Arial,Helvetica,sans-serif;stroke:none;fill:#000000">0.2</text><text x="130" y="389.625" text-anchor="middle" style="font:10px Droid Sans,Trebuchet MS,Arial,Helvetica,sans-serif;stroke:none;fill:#000000">0.4</text><text x="195.00000000000003" y="389.625" text-anchor="middle" style="font:10px Droid Sans,Trebuchet MS,Arial,Helvetica,sans-serif;stroke:none;fill:#000000">0.6</text><text x="260" y="389.625" text-anchor="middle" style="font:10px Droid Sans,Trebuchet MS,Arial,Helvetica,sans-serif;stroke:none;fill:#000000">0.8</text><text x="325" y="389.625" text-anchor="middle" style="font:10px Droid Sans,Trebuchet MS,Arial,Helvetica,sans-serif;stroke:none;fill:#000000">1</text><text x="390" y="389.625" text-anchor="middle" style="font:10px Droid Sans,Trebuchet MS,Arial,Helvetica,sans-serif;stroke:none;fill:#000000">1.2</text><text x="454.99999999999994" y="389.625" text-anchor="middle" style="font:10px Droid Sans,Trebuchet MS,Arial,Helvetica,sans-serif;stroke:none;fill:#000000">1.4</text><text x="520" y="389.625" text-anchor="middle" style="font:10px Droid Sans,Trebuchet MS,Arial,Helvetica,sans-serif;stroke:none;fill:#000000">1.6</text><text x="584.9999999999999" y="389.625" text-anchor="middle" style="font:10px Droid Sans,Trebuchet MS,Arial,Helvetica,sans-serif;stroke:none;fill:#000000">1.8</text><path d="M-10.00 200.00 L-0.25 80.00 L0.75 80.00 L2.75 80.00 L4.75 80.00 L6.75 80.00 L8.75 80.00 L10.75 80.00 L12.75 80.00 L14.75 80.00 L16.75 80.00 L18.75 80.00 L20.75 80.00 L22.75 80.00 L24.75 80.00 L26.75 80.00 L28.75 80.00 L30.75 80.01 L32.75 80.01 L34.75 80.01 L36.75 80.01 L38.75 80.01 L40.75 80.01 L42.75 80.01 L44.75 80.01 L46.75 80.01 L48.75 80.01 L50.75 80.01 L52.75 80.01 L54.75 80.01 L56.75 80.01 L58.75 80.02 L60.75 80.02 L62.75 80.02 L64.75 80.02 L66.75 80.02 L68.75 80.02 L70.75 80.02 L72.75 80.03 L74.75 80.03 L76.75 80.03 L78.75 80.03 L80.75 80.03 L82.75 80.04 L84.75 80.04 L86.75 80.04 L88.75 80.05 L90.75 80.05 L92.75 80.05 L94.75 80.06 L96.75 80.06 L98.75 80.07 L100.75 80.07 L102.75 80.08 L104.75 80.08 L106.75 80.09 L108.75 80.10 L110.75 80.10 L112.75 80.11 L114.75 80.12 L116.75 80.13 L118.75 80.14 L120.75 80.15 L122.75 80.16 L124.75 80.17 L126.75 80.19 L128.75 80.20 L130.75 80.21 L132.75 80.23 L134.75 80.25 L136.75 80.27 L138.75 80.29 L140.75 80.31 L142.75 80.33 L144.75 80.36 L146.75 80.39 L148.75 80.42 L150.75 80.45 L152.75 80.48 L154.75 80.52 L156.75 80.56 L158.75 80.60 L160.75 80.65 L162.75 80.70 L164.75 80.75 L166.75 80.81 L168.75 80.87 L170.75 80.94 L172.75 81.01 L174.75 81.09 L176.75 81.17 L178.75 81.26 L180.75 81.35 L182.75 81.46 L184.75 81.57 L186.75 81.69 L188.75 81.82 L190.75 81.96 L192.75 82.10 L194.75 82.26 L196.75 82.44 L198.75 82.62 L200.75 82.82 L202.75 83.03 L204.75 83.26 L206.75 83.51 L208.75 83.78 L210.75 84.06 L212.75 84.37 L214.75 84.70 L216.75 85.05 L218.75 85.43 L220.75 85.84 L222.75 86.28 L224.75 86.75 L226.75 87.25 L228.75 87.79 L230.75 88.37 L232.75 88.99 L234.75 89.65 L236.75 90.37 L238.75 91.13 L240.75 91.95 L242.75 92.82 L244.75 93.75 L246.75 94.75 L248.75 95.82 L250.63 96.89 L252.38 97.95 L254.04 99.00 L255.61 100.06 L257.10 101.10 L258.53 102.15 L259.88 103.20 L261.18 104.24 L262.43 105.28 L263.63 106.31 L264.79 107.35 L265.90 108.39 L266.98 109.42 L268.03 110.45 L269.04 111.48 L270.02 112.51 L270.98 113.54 L271.91 114.56 L272.82 115.59 L273.70 116.61 L274.56 117.64 L275.40 118.66 L276.22 119.68 L277.03 120.71 L277.81 121.73 L278.58 122.75 L279.34 123.77 L280.08 124.79 L280.81 125.80 L281.52 126.82 L282.22 127.84 L282.91 128.86 L283.59 129.87 L284.25 130.89 L284.91 131.91 L285.55 132.92 L286.19 133.94 L286.82 134.95 L287.43 135.96 L288.04 136.98 L288.64 137.99 L289.24 139.00 L289.82 140.02 L290.40 141.03 L290.97 142.04 L291.53 143.05 L292.09 144.06 L292.64 145.08 L293.19 146.09 L293.73 147.10 L294.26 148.11 L294.79 149.12 L295.31 150.13 L295.83 151.14 L296.34 152.15 L296.85 153.16 L297.35 154.16 L297.85 155.17 L298.35 156.18 L298.84 157.19 L299.32 158.20 L299.81 159.21 L300.29 160.21 L300.76 161.22 L301.23 162.23 L301.70 163.24 L302.16 164.24 L302.63 165.25 L303.08 166.26 L303.54 167.26 L303.99 168.27 L304.44 169.28 L304.89 170.28 L305.33 171.29 L305.77 172.29 L306.21 173.30 L306.65 174.30 L307.08 175.31 L307.51 176.31 L307.94 177.32 L308.37 178.32 L308.80 179.33 L309.22 180.33 L309.64 181.34 L310.06 182.34 L310.48 183.35 L310.90 184.35 L311.31 185.35 L311.72 186.36 L312.14 187.36 L312.55 188.37 L312.95 189.37 L313.36 190.37 L313.77 191.38 L314.17 192.38 L314.57 193.38 L314.98 194.38 L315.38 195.39 L315.78 196.39 L316.18 197.39 L316.57 198.39 L316.97 199.40 L317.37 200.40 L317.76 201.40 L318.16 202.40 L318.55 203.40 L318.94 204.41 L319.33 205.41 L319.73 206.41 L320.12 207.41 L320.51 208.41 L320.90 209.41 L321.29 210.41 L321.67 211.42 L322.06 212.42 L322.45 213.42 L322.84 214.42 L323.23 215.42 L323.61 216.42 L324.00 217.42 L324.39 218.42 L324.78 219.42 L325.16 220.42 L325.55 221.42 L325.94 222.42 L326.32 223.42 L326.71 224.42 L327.10 225.42 L327.48 226.42 L327.87 227.42 L328.26 228.42 L328.65 229.42 L329.04 230.41 L329.43 231.41 L329.82 232.41 L330.20 233.41 L330.59 234.41 L330.99 235.41 L331.38 236.41 L331.77 237.40 L332.16 238.40 L332.56 239.40 L332.95 240.40 L333.34 241.40 L333.74 242.39 L334.14 243.39 L334.53 244.39 L334.93 245.39 L335.33 246.38 L335.73 247.38 L336.13 248.38 L336.54 249.38 L336.94 250.37 L337.35 251.37 L337.75 252.37 L338.16 253.36 L338.57 254.36 L338.98 255.36 L339.39 256.35 L339.81 257.35 L340.22 258.34 L340.64 259.34 L341.06 260.34 L341.48 261.33 L341.90 262.33 L342.33 263.32 L342.76 264.32 L343.19 265.31 L343.62 266.31 L344.05 267.30 L344.48 268.30 L344.92 269.29 L345.36 270.28 L345.81 271.28 L346.25 272.27 L346.70 273.27 L347.15 274.26 L347.60 275.25 L348.06 276.25 L348.52 277.24 L348.98 278.23 L349.45 279.23 L349.92 280.22 L350.39 281.21 L350.87 282.20 L351.35 283.20 L351.83 284.19 L352.32 285.18 L352.81 286.17 L353.31 287.16 L353.81 288.15 L354.31 289.15 L354.82 290.14 L355.34 291.13 L355.86 292.12 L356.38 293.11 L356.91 294.10 L357.45 295.09 L357.99 296.08 L358.53 297.07 L359.08 298.05 L359.64 299.04 L360.21 300.03 L360.78 301.02 L361.36 302.01 L361.94 302.99 L362.53 303.98 L363.13 304.97 L363.74 305.96 L364.36 306.94 L364.99 307.93 L365.62 308.91 L366.26 309.90 L366.92 310.88 L367.58 311.87 L368.25 312.85 L368.94 313.83 L369.64 314.82 L370.34 315.80 L371.07 316.78 L371.80 317.76 L372.55 318.74 L373.31 319.73 L374.09 320.71 L374.88 321.68 L375.69 322.66 L376.52 323.64 L377.37 324.62 L378.23 325.60 L379.12 326.57 L380.03 327.55 L380.96 328.52 L381.92 329.49 L382.90 330.47 L383.91 331.44 L384.95 332.41 L386.02 333.38 L387.13 334.35 L388.27 335.31 L389.45 336.28 L390.68 337.24 L391.95 338.20 L393.27 339.16 L394.65 340.12 L396.08 341.08 L397.58 342.03 L399.15 342.98 L400.81 343.93 L402.55 344.88 L404.39 345.82 L406.34 346.76 L408.34 347.66 L410.34 348.50 L412.34 349.29 L414.34 350.03 L416.34 350.71 L418.34 351.35 L420.34 351.95 L422.34 352.51 L424.34 353.03 L426.34 353.51 L428.34 353.97 L430.34 354.39 L432.34 354.78 L434.34 355.14 L436.34 355.48 L438.34 355.80 L440.34 356.10 L442.34 356.37 L444.34 356.63 L446.34 356.86 L448.34 357.08 L450.34 357.29 L452.34 357.48 L454.34 357.66 L456.34 357.82 L458.34 357.98 L460.34 358.12 L462.34 358.25 L464.34 358.38 L466.34 358.49 L468.34 358.60 L470.34 358.70 L472.34 358.79 L474.34 358.88 L476.34 358.96 L478.34 359.03 L480.34 359.10 L482.34 359.16 L484.34 359.22 L486.34 359.28 L488.34 359.33 L490.34 359.38 L492.34 359.42 L494.34 359.46 L496.34 359.50 L498.34 359.54 L500.34 359.57 L502.34 359.60 L504.34 359.63 L506.34 359.65 L508.34 359.68 L510.34 359.70 L512.34 359.72 L514.34 359.74 L516.34 359.76 L518.34 359.78 L520.34 359.79 L522.34 359.81 L524.34 359.82 L526.34 359.83 L528.34 359.85 L530.34 359.86 L532.34 359.87 L534.34 359.88 L536.34 359.89 L538.34 359.89 L540.34 359.90 L542.34 359.91 L544.34 359.91 L546.34 359.92 L548.34 359.93 L550.34 359.93 L552.34 359.94 L554.34 359.94 L556.34 359.95 L558.34 359.95 L560.34 359.95 L562.34 359.96 L564.34 359.96 L566.34 359.96 L568.34 359.96 L570.34 359.97 L572.34 359.97 L574.34 359.97 L576.34 359.97 L578.34 359.98 L580.34 359.98 L582.34 359.98 L584.34 359.98 L586.34 359.98 L588.34 359.98 L590.34 359.98 L592.34 359.99 L594.34 359.99 L596.34 359.99 L598.34 359.99 L600.34 359.99 L602.34 359.99 L604.34 359.99 L606.34 359.99 L608.34 359.99 L610.34 359.99 L612.34 359.99 L614.34 359.99 L616.34 359.99 L618.34 359.99 L620.34 359.99 L622.34 360.00 L624.34 360.00 L626.34 360.00 L628.34 360.00 L630.34 360.00 L632.34 360.00 L634.34 360.00 L636.34 360.00 L638.34 360.00 L640.34 360.00 L642.34 360.00 L644.34 360.00 L646.34 360.00 L648.34 360.00 " style="fill:none;stroke:#000000;stroke-width:1;" /></g></svg>